<?xml version="1.0" encoding="UTF-8"?>
<svg width="574px" height="125px" viewBox="0 0 574 125" version="1.1" xmlns="http://www.w3.org/2000/svg" xmlns:xlink="http://www.w3.org/1999/xlink">
    <!-- Generator: Sketch 64 (93537) - https://sketch.com -->
    <title>Group 3</title>
    <desc>Created with Sketch.</desc>
    <defs>
        <rect id="path-1" x="0" y="0" width="554" height="105" rx="20"></rect>
        <filter x="-2.6%" y="-15.7%" width="105.6%" height="129.5%" filterUnits="objectBoundingBox" id="filter-2">
            <feMorphology radius="1" operator="dilate" in="SourceAlpha" result="shadowSpreadOuter1"></feMorphology>
            <feOffset dx="1" dy="-1" in="shadowSpreadOuter1" result="shadowOffsetOuter1"></feOffset>
            <feGaussianBlur stdDeviation="4" in="shadowOffsetOuter1" result="shadowBlurOuter1"></feGaussianBlur>
            <feColorMatrix values="0 0 0 0 0   0 0 0 0 0   0 0 0 0 0  0 0 0 0.150540865 0" type="matrix" in="shadowBlurOuter1"></feColorMatrix>
        </filter>
    </defs>
    <g id="Page-1" stroke="none" stroke-width="1" fill="none" fill-rule="evenodd">
        <g id="Explore-Filtered-Copy-2" transform="translate(-544.000000, -666.000000)">
            <g id="Group-3" transform="translate(553.000000, 677.000000)">
                <g id="Rectangle">
                    <use fill="black" fill-opacity="1" filter="url(#filter-2)" xlink:href="#path-1"></use>
                    <use fill="#C5CAE9" fill-rule="evenodd" xlink:href="#path-1"></use>
                </g>
                <g id="icons8-github" transform="translate(131.000000, 18.000000)" fill="#000000" fill-rule="nonzero">
                    <path d="M32.5,0 C14.5507456,0 0,14.5507456 0,32.5 C0,50.4492544 14.5507456,65 32.5,65 C50.4492544,65 65,50.4492544 65,32.5 C65,14.5507456 50.4492544,0 32.5,0 Z" id="Path" opacity="0.3"></path>
                    <path d="M28.8517667,0.224900747 C13.8714177,1.84954747 1.82200662,13.8719332 0.19370782,28.4937538 C-1.43459098,43.765433 7.35822253,57.4124655 20.7102727,62.611335 C21.687252,62.9362643 22.6642312,62.2864056 22.6642312,60.9866883 L22.6642312,55.7878187 C22.6642312,55.7878187 21.3615922,56.1127481 19.7332934,56.1127481 C15.1740568,56.1127481 13.2200982,52.2135959 12.8944384,49.9390905 C12.5687787,48.6393731 11.9174592,47.6645851 10.9404799,46.6897971 C9.96350061,46.3648677 9.63784085,46.3648677 9.63784085,46.0399384 C9.63784085,45.3900797 10.6148201,45.3900797 10.9404799,45.3900797 C12.8944384,45.3900797 14.5227372,47.6645851 15.1740568,48.6393731 C16.8023556,51.2388079 18.7563141,51.8886666 19.7332934,51.8886666 C21.0359324,51.8886666 22.0129117,51.5637372 22.6642312,51.2388079 C22.989891,48.9643025 23.9668703,46.6897971 25.9208288,45.3900797 C18.4306544,43.765433 12.8944384,39.5413515 12.8944384,32.3929059 C12.8944384,28.8186831 14.5227372,25.2444603 16.8023556,22.6450255 C16.4766958,21.9951669 16.151036,20.3705201 16.151036,18.0960147 C16.151036,16.7962973 16.151036,14.8467213 17.1280153,12.8971452 C17.1280153,12.8971452 21.687252,12.8971452 26.2464886,17.1212267 C27.8747874,16.471368 30.1544057,16.1464386 32.434024,16.1464386 C34.7136423,16.1464386 36.9932607,16.471368 38.9472192,17.1212267 C43.1807961,12.8971452 48.0656925,12.8971452 48.0656925,12.8971452 C48.717012,14.8467213 48.717012,16.7962973 48.717012,18.0960147 C48.717012,20.6954495 48.3913523,21.9951669 48.0656925,22.6450255 C50.3453108,25.2444603 51.9736096,28.4937538 51.9736096,32.3929059 C51.9736096,39.5413515 46.4373937,43.765433 38.9472192,45.3900797 C40.9011778,47.0147264 42.2038168,49.9390905 42.2038168,52.8634546 L42.2038168,61.3116176 C42.2038168,62.2864056 43.1807961,63.2611937 44.4834351,62.9362643 C56.5328462,58.0623241 65,46.3648677 65,32.7178352 C65,13.2220745 48.3913523,-2.04960467 28.8517667,0.224900747 Z" id="Path"></path>
                </g>
                <g id="icons8-octocat" transform="translate(60.000000, 18.000000)" fill-rule="nonzero">
                    <path d="M68.97,16.5835777 C70.11,13.3431085 71.25,7.05278592 68.21,0 C59.66,0 52.44,6.09970674 51.3,7.24340176 C47.12,6.29032258 42.56,5.90909091 38,5.90909091 C33.25,5.90909091 28.69,6.48093842 24.32,7.4340176 C18.43,1.33431085 10.64,0 7.6,0 C7.6,0 5.89,3.43108504 5.89,9.53079179 C5.89,13.3431085 6.84,15.6304985 7.41,16.7741935 C2.85,21.5395894 0,28.0205279 0,36.4076246 C0,57.7565982 13.49,65 38,65 C62.51,65 76,57.7565982 76,36.4076246 C76,27.6392962 73.34,21.1583578 68.97,16.5835777 Z" id="Path" fill="#455A64"></path>
                    <path d="M38.5,61 C22.92,61 10,58.3683151 10,44.0820255 C10,38.6306781 13.04,35.6230382 15.13,33.7432633 C19.88,29.6077584 27.86,31.4875333 38.5,31.4875333 C46.29,31.4875333 52.94,30.1716908 58.26,31.8634883 C63.58,33.5552858 67,38.4427006 67,43.7060705 C67,58.5562926 59.4,61 38.5,61 Z" id="Path" fill="#FFCCBC"></path>
                    <path d="M39.8269231,51 C39.8269231,52.2 39.0576923,53 37.9038462,53 C36.75,53 35.9807692,52.2 35.9807692,51 C35.9807692,49.8 36.75,49 37.9038462,49 C39.0576923,49 39.8269231,49.8 39.8269231,51 Z M42.7115385,56 C43.0961538,55.6 43.0961538,55 42.7115385,54.6 C42.3269231,54.2 41.75,54.2 41.3653846,54.6 C39.6346154,56.4 36.3653846,56.4 34.6346154,54.6 C34.25,54.2 33.6730769,54.2 33.2884615,54.6 C32.9038462,55 32.9038462,55.6 33.2884615,56 C34.6346154,57.4 36.1730769,58 38.0961538,58 C40.0192308,58 41.3653846,57.2 42.7115385,56 Z" id="Shape" fill="#D84315"></path>
                    <path d="M29.1818182,43.5 C29.1818182,48.2222222 26.7590909,52 23.5909091,52 C20.4227273,52 18,48.2222222 18,43.5 C18,38.7777778 20.4227273,35 23.5909091,35 C26.7590909,35 29.1818182,38.7777778 29.1818182,43.5 Z M53.4090909,35 C50.2409091,35 47.8181818,38.7777778 47.8181818,43.5 C47.8181818,48.2222222 50.2409091,52 53.4090909,52 C56.5772727,52 59,48.2222222 59,43.5 C59,38.7777778 56.5772727,35 53.4090909,35 Z" id="Shape" fill="#FFFFFF"></path>
                    <path d="M57,43.5 C57,46.6166667 55.29,49 53.2,49 C51.11,49 49.4,46.6166667 49.4,43.5 C49.4,43.1333333 49.4,42.5833333 49.59,42.2166667 C49.78,42.95 50.54,43.5 51.3,43.5 C52.44,43.5 53.2,42.7666667 53.2,41.6666667 C53.2,40.5666667 52.44,39.8333333 51.3,39.8333333 C50.92,39.8333333 50.54,40.0166667 50.16,40.2 C50.92,38.9166667 51.87,38 53.2,38 C55.29,38 57,40.3833333 57,43.5 Z M22.8,38 C21.47,38 20.52,38.9166667 19.76,40.2 C20.14,40.0166667 20.52,39.8333333 20.9,39.8333333 C22.04,39.8333333 22.8,40.5666667 22.8,41.6666667 C22.8,42.7666667 22.04,43.5 20.9,43.5 C20.14,43.5 19.38,42.95 19.19,42.2166667 C19.19,42.5833333 19,43.1333333 19,43.5 C19,46.6166667 20.71,49 22.8,49 C24.89,49 26.6,46.6166667 26.6,43.5 C26.6,40.3833333 24.89,38 22.8,38 Z" id="Shape" fill="#6D4C41"></path>
                    <path d="M182.012,24 L182.012,17.976 C182.62,18.072 183.18,18.12 183.692,18.12 C184.044,18.12 184.372,18.112 184.676,18.096 L184.676,18.096 L187.724,24 L191.66,24 L187.796,17.16 C188.404,16.84 188.924,16.436 189.356,15.948 C189.788,15.46 190.124,14.916 190.364,14.316 C190.604,13.716 190.724,13.088 190.724,12.432 C190.724,11.312 190.452,10.34 189.908,9.516 C189.364,8.692 188.584,8.06 187.568,7.62 C186.552,7.18 185.348,6.96 183.956,6.96 L183.956,6.96 L178.484,6.96 L178.484,24 L182.012,24 Z M183.884,15.144 C183.548,15.144 183.228,15.132 182.924,15.108 C182.62,15.084 182.316,15.048 182.012,15 L182.012,15 L182.012,9.984 L183.884,9.984 C184.908,9.984 185.7,10.208 186.26,10.656 C186.82,11.104 187.1,11.736 187.1,12.552 C187.1,13.368 186.82,14.004 186.26,14.46 C185.7,14.916 184.908,15.144 183.884,15.144 Z M199.412,24.36 C200.276,24.36 201.092,24.22 201.86,23.94 C202.628,23.66 203.3,23.264 203.876,22.752 C204.452,22.24 204.884,21.624 205.172,20.904 L205.172,20.904 L202.172,19.944 C201.868,20.456 201.48,20.848 201.008,21.12 C200.536,21.392 200.012,21.528 199.436,21.528 C198.604,21.528 197.916,21.26 197.372,20.724 C196.828,20.188 196.484,19.448 196.34,18.504 L196.34,18.504 L205.436,18.504 L205.436,17.664 C205.436,16.656 205.288,15.744 204.992,14.928 C204.696,14.112 204.276,13.408 203.732,12.816 C203.188,12.224 202.536,11.768 201.776,11.448 C201.016,11.128 200.172,10.968 199.244,10.968 C198.348,10.968 197.516,11.136 196.748,11.472 C195.98,11.808 195.312,12.276 194.744,12.876 C194.176,13.476 193.732,14.184 193.412,15 C193.092,15.816 192.932,16.696 192.932,17.64 C192.932,18.616 193.092,19.516 193.412,20.34 C193.732,21.164 194.18,21.876 194.756,22.476 C195.332,23.076 196.016,23.54 196.808,23.868 C197.6,24.196 198.468,24.36 199.412,24.36 Z M201.98,16.248 L196.388,16.248 C196.548,15.416 196.88,14.76 197.384,14.28 C197.888,13.8 198.508,13.56 199.244,13.56 C199.964,13.56 200.568,13.8 201.056,14.28 C201.544,14.76 201.852,15.416 201.98,16.248 L201.98,16.248 Z M210.884,28.656 L210.884,22.584 C211.316,23.144 211.852,23.58 212.492,23.892 C213.132,24.204 213.844,24.36 214.628,24.36 C215.476,24.36 216.268,24.188 217.004,23.844 C217.74,23.5 218.38,23.02 218.924,22.404 C219.468,21.788 219.892,21.072 220.196,20.256 C220.5,19.44 220.652,18.552 220.652,17.592 C220.652,16.648 220.504,15.776 220.208,14.976 C219.912,14.176 219.5,13.476 218.972,12.876 C218.444,12.276 217.828,11.808 217.124,11.472 C216.42,11.136 215.652,10.968 214.82,10.968 C213.956,10.968 213.164,11.164 212.444,11.556 C211.724,11.948 211.148,12.488 210.716,13.176 L210.716,13.176 L210.62,11.328 L207.524,11.328 L207.524,28.656 L210.884,28.656 Z M214.028,21.336 C213.42,21.336 212.876,21.176 212.396,20.856 C211.916,20.536 211.536,20.1 211.256,19.548 C210.976,18.996 210.836,18.368 210.836,17.664 C210.836,16.96 210.976,16.332 211.256,15.78 C211.536,15.228 211.916,14.792 212.396,14.472 C212.876,14.152 213.42,13.992 214.028,13.992 C214.636,13.992 215.18,14.152 215.66,14.472 C216.14,14.792 216.52,15.228 216.8,15.78 C217.08,16.332 217.22,16.96 217.22,17.664 C217.22,18.368 217.08,18.996 216.8,19.548 C216.52,20.1 216.14,20.536 215.66,20.856 C215.18,21.176 214.636,21.336 214.028,21.336 Z M228.956,24.36 C229.916,24.36 230.8,24.192 231.608,23.856 C232.416,23.52 233.12,23.048 233.72,22.44 C234.32,21.832 234.788,21.12 235.124,20.304 C235.46,19.488 235.628,18.6 235.628,17.64 C235.628,16.68 235.464,15.796 235.136,14.988 C234.808,14.18 234.348,13.476 233.756,12.876 C233.164,12.276 232.468,11.808 231.668,11.472 C230.868,11.136 229.996,10.968 229.052,10.968 C228.092,10.968 227.208,11.136 226.4,11.472 C225.592,11.808 224.888,12.28 224.288,12.888 C223.688,13.496 223.22,14.204 222.884,15.012 C222.548,15.82 222.38,16.704 222.38,17.664 C222.38,18.624 222.544,19.512 222.872,20.328 C223.2,21.144 223.66,21.852 224.252,22.452 C224.844,23.052 225.54,23.52 226.34,23.856 C227.14,24.192 228.012,24.36 228.956,24.36 Z M229.004,21.336 C228.396,21.336 227.852,21.176 227.372,20.856 C226.892,20.536 226.512,20.1 226.232,19.548 C225.952,18.996 225.812,18.368 225.812,17.664 C225.812,16.96 225.952,16.332 226.232,15.78 C226.512,15.228 226.892,14.792 227.372,14.472 C227.852,14.152 228.396,13.992 229.004,13.992 C229.612,13.992 230.156,14.152 230.636,14.472 C231.116,14.792 231.496,15.228 231.776,15.78 C232.056,16.332 232.196,16.96 232.196,17.664 C232.196,18.368 232.056,18.996 231.776,19.548 C231.496,20.1 231.116,20.536 230.636,20.856 C230.156,21.176 229.612,21.336 229.004,21.336 Z M241.196,24 L241.196,17.784 C241.196,16.744 241.444,15.94 241.94,15.372 C242.436,14.804 243.148,14.52 244.076,14.52 C244.268,14.52 244.456,14.532 244.64,14.556 C244.824,14.58 245.004,14.624 245.18,14.688 L245.18,14.688 L245.54,11.376 C245.364,11.312 245.164,11.26 244.94,11.22 C244.716,11.18 244.492,11.16 244.268,11.16 C243.532,11.16 242.892,11.34 242.348,11.7 C241.804,12.06 241.372,12.576 241.052,13.248 L241.052,13.248 L240.932,11.328 L237.836,11.328 L237.836,24 L241.196,24 Z M252.86,24.36 C253.452,24.36 254.004,24.284 254.516,24.132 C255.028,23.98 255.492,23.776 255.908,23.52 L255.908,23.52 L255.308,21 C255.02,21.128 254.72,21.232 254.408,21.312 C254.096,21.392 253.804,21.432 253.532,21.432 C253.004,21.432 252.612,21.268 252.356,20.94 C252.1,20.612 251.972,20.144 251.972,19.536 L251.972,19.536 L251.972,14.04 L255.428,14.04 L255.428,11.328 L251.972,11.328 L251.972,7.008 L248.612,7.008 L248.612,11.328 L246.452,11.328 L246.452,14.04 L248.612,14.04 L248.612,19.944 C248.612,20.888 248.784,21.688 249.128,22.344 C249.472,23 249.96,23.5 250.592,23.844 C251.224,24.188 251.98,24.36 252.86,24.36 Z M268.388,24.36 C268.98,24.36 269.532,24.284 270.044,24.132 C270.556,23.98 271.02,23.776 271.436,23.52 L271.436,23.52 L270.836,21 C270.548,21.128 270.248,21.232 269.936,21.312 C269.624,21.392 269.332,21.432 269.06,21.432 C268.532,21.432 268.14,21.268 267.884,20.94 C267.628,20.612 267.5,20.144 267.5,19.536 L267.5,19.536 L267.5,14.04 L270.956,14.04 L270.956,11.328 L267.5,11.328 L267.5,7.008 L264.14,7.008 L264.14,11.328 L261.98,11.328 L261.98,14.04 L264.14,14.04 L264.14,19.944 C264.14,20.888 264.312,21.688 264.656,22.344 C265,23 265.488,23.5 266.12,23.844 C266.752,24.188 267.508,24.36 268.388,24.36 Z M276.764,24 L276.764,16.728 C276.764,16.2 276.876,15.728 277.1,15.312 C277.324,14.896 277.628,14.572 278.012,14.34 C278.396,14.108 278.844,13.992 279.356,13.992 C280.06,13.992 280.612,14.244 281.012,14.748 C281.412,15.252 281.612,15.944 281.612,16.824 L281.612,16.824 L281.612,24 L284.972,24 L284.972,16.392 C284.972,15.288 284.78,14.328 284.396,13.512 C284.012,12.696 283.472,12.068 282.776,11.628 C282.08,11.188 281.268,10.968 280.34,10.968 C279.556,10.968 278.86,11.124 278.252,11.436 C277.644,11.748 277.148,12.176 276.764,12.72 L276.764,12.72 L276.764,6.096 L273.404,6.096 L273.404,24 L276.764,24 Z M293.66,24.36 C294.524,24.36 295.34,24.22 296.108,23.94 C296.876,23.66 297.548,23.264 298.124,22.752 C298.7,22.24 299.132,21.624 299.42,20.904 L299.42,20.904 L296.42,19.944 C296.116,20.456 295.728,20.848 295.256,21.12 C294.784,21.392 294.26,21.528 293.684,21.528 C292.852,21.528 292.164,21.26 291.62,20.724 C291.076,20.188 290.732,19.448 290.588,18.504 L290.588,18.504 L299.684,18.504 L299.684,17.664 C299.684,16.656 299.536,15.744 299.24,14.928 C298.944,14.112 298.524,13.408 297.98,12.816 C297.436,12.224 296.784,11.768 296.024,11.448 C295.264,11.128 294.42,10.968 293.492,10.968 C292.596,10.968 291.764,11.136 290.996,11.472 C290.228,11.808 289.56,12.276 288.992,12.876 C288.424,13.476 287.98,14.184 287.66,15 C287.34,15.816 287.18,16.696 287.18,17.64 C287.18,18.616 287.34,19.516 287.66,20.34 C287.98,21.164 288.428,21.876 289.004,22.476 C289.58,23.076 290.264,23.54 291.056,23.868 C291.848,24.196 292.716,24.36 293.66,24.36 Z M296.228,16.248 L290.636,16.248 C290.796,15.416 291.128,14.76 291.632,14.28 C292.136,13.8 292.756,13.56 293.492,13.56 C294.212,13.56 294.816,13.8 295.304,14.28 C295.792,14.76 296.1,15.416 296.228,16.248 L296.228,16.248 Z M310.58,24 L310.58,6.96 L307.004,6.96 L307.004,24 L310.58,24 Z M318.044,24.36 C318.796,24.36 319.484,24.256 320.108,24.048 C320.732,23.84 321.276,23.544 321.74,23.16 C322.204,22.776 322.56,22.328 322.808,21.816 C323.056,21.304 323.18,20.736 323.18,20.112 C323.18,19.088 322.82,18.244 322.1,17.58 C321.38,16.916 320.34,16.464 318.98,16.224 L318.98,16.224 L318.308,16.104 C317.556,15.976 317.024,15.804 316.712,15.588 C316.4,15.372 316.244,15.104 316.244,14.784 C316.244,14.416 316.404,14.112 316.724,13.872 C317.044,13.632 317.452,13.512 317.948,13.512 C318.428,13.512 318.848,13.648 319.208,13.92 C319.568,14.192 319.828,14.568 319.988,15.048 L319.988,15.048 L322.988,14.424 C322.812,13.704 322.492,13.088 322.028,12.576 C321.564,12.064 320.984,11.668 320.288,11.388 C319.592,11.108 318.82,10.968 317.972,10.968 C317.012,10.968 316.164,11.144 315.428,11.496 C314.692,11.848 314.116,12.332 313.7,12.948 C313.284,13.564 313.076,14.272 313.076,15.072 C313.076,16.08 313.432,16.912 314.144,17.568 C314.856,18.224 315.9,18.672 317.276,18.912 L317.276,18.912 L317.948,19.032 C318.668,19.16 319.184,19.34 319.496,19.572 C319.808,19.804 319.964,20.096 319.964,20.448 C319.964,20.864 319.788,21.192 319.436,21.432 C319.084,21.672 318.636,21.792 318.092,21.792 C317.516,21.792 317.02,21.648 316.604,21.36 C316.188,21.072 315.9,20.68 315.74,20.184 L315.74,20.184 L312.716,20.832 C312.908,21.552 313.256,22.176 313.76,22.704 C314.264,23.232 314.88,23.64 315.608,23.928 C316.336,24.216 317.148,24.36 318.044,24.36 Z M329.828,24.36 C330.58,24.36 331.268,24.256 331.892,24.048 C332.516,23.84 333.06,23.544 333.524,23.16 C333.988,22.776 334.344,22.328 334.592,21.816 C334.84,21.304 334.964,20.736 334.964,20.112 C334.964,19.088 334.604,18.244 333.884,17.58 C333.164,16.916 332.124,16.464 330.764,16.224 L330.764,16.224 L330.092,16.104 C329.34,15.976 328.808,15.804 328.496,15.588 C328.184,15.372 328.028,15.104 328.028,14.784 C328.028,14.416 328.188,14.112 328.508,13.872 C328.828,13.632 329.236,13.512 329.732,13.512 C330.212,13.512 330.632,13.648 330.992,13.92 C331.352,14.192 331.612,14.568 331.772,15.048 L331.772,15.048 L334.772,14.424 C334.596,13.704 334.276,13.088 333.812,12.576 C333.348,12.064 332.768,11.668 332.072,11.388 C331.376,11.108 330.604,10.968 329.756,10.968 C328.796,10.968 327.948,11.144 327.212,11.496 C326.476,11.848 325.9,12.332 325.484,12.948 C325.068,13.564 324.86,14.272 324.86,15.072 C324.86,16.08 325.216,16.912 325.928,17.568 C326.64,18.224 327.684,18.672 329.06,18.912 L329.06,18.912 L329.732,19.032 C330.452,19.16 330.968,19.34 331.28,19.572 C331.592,19.804 331.748,20.096 331.748,20.448 C331.748,20.864 331.572,21.192 331.22,21.432 C330.868,21.672 330.42,21.792 329.876,21.792 C329.3,21.792 328.804,21.648 328.388,21.36 C327.972,21.072 327.684,20.68 327.524,20.184 L327.524,20.184 L324.5,20.832 C324.692,21.552 325.04,22.176 325.544,22.704 C326.048,23.232 326.664,23.64 327.392,23.928 C328.12,24.216 328.932,24.36 329.828,24.36 Z M342.764,24.36 C343.644,24.36 344.44,24.216 345.152,23.928 C345.864,23.64 346.476,23.232 346.988,22.704 C347.5,22.176 347.892,21.544 348.164,20.808 C348.436,20.072 348.572,19.248 348.572,18.336 L348.572,18.336 L348.572,11.328 L345.212,11.328 L345.212,18.408 C345.212,19.32 344.996,20.036 344.564,20.556 C344.132,21.076 343.548,21.336 342.812,21.336 C342.076,21.336 341.492,21.076 341.06,20.556 C340.628,20.036 340.412,19.32 340.412,18.408 L340.412,18.408 L340.412,11.328 L337.052,11.328 L337.052,18.336 C337.052,19.568 337.288,20.636 337.76,21.54 C338.232,22.444 338.896,23.14 339.752,23.628 C340.608,24.116 341.612,24.36 342.764,24.36 Z M357.26,24.36 C358.124,24.36 358.94,24.22 359.708,23.94 C360.476,23.66 361.148,23.264 361.724,22.752 C362.3,22.24 362.732,21.624 363.02,20.904 L363.02,20.904 L360.02,19.944 C359.716,20.456 359.328,20.848 358.856,21.12 C358.384,21.392 357.86,21.528 357.284,21.528 C356.452,21.528 355.764,21.26 355.22,20.724 C354.676,20.188 354.332,19.448 354.188,18.504 L354.188,18.504 L363.284,18.504 L363.284,17.664 C363.284,16.656 363.136,15.744 362.84,14.928 C362.544,14.112 362.124,13.408 361.58,12.816 C361.036,12.224 360.384,11.768 359.624,11.448 C358.864,11.128 358.02,10.968 357.092,10.968 C356.196,10.968 355.364,11.136 354.596,11.472 C353.828,11.808 353.16,12.276 352.592,12.876 C352.024,13.476 351.58,14.184 351.26,15 C350.94,15.816 350.78,16.696 350.78,17.64 C350.78,18.616 350.94,19.516 351.26,20.34 C351.58,21.164 352.028,21.876 352.604,22.476 C353.18,23.076 353.864,23.54 354.656,23.868 C355.448,24.196 356.316,24.36 357.26,24.36 Z M359.828,16.248 L354.236,16.248 C354.396,15.416 354.728,14.76 355.232,14.28 C355.736,13.8 356.356,13.56 357.092,13.56 C357.812,13.56 358.416,13.8 358.904,14.28 C359.392,14.76 359.7,15.416 359.828,16.248 L359.828,16.248 Z M372.068,9.816 C372.42,9.816 372.744,9.732 373.04,9.564 C373.336,9.396 373.568,9.168 373.736,8.88 C373.904,8.592 373.988,8.264 373.988,7.896 C373.988,7.528 373.904,7.2 373.736,6.912 C373.568,6.624 373.336,6.396 373.04,6.228 C372.744,6.06 372.42,5.976 372.068,5.976 C371.716,5.976 371.392,6.06 371.096,6.228 C370.8,6.396 370.568,6.624 370.4,6.912 C370.232,7.2 370.148,7.528 370.148,7.896 C370.148,8.264 370.232,8.592 370.4,8.88 C370.568,9.168 370.8,9.396 371.096,9.564 C371.392,9.732 371.716,9.816 372.068,9.816 Z M373.748,24 L373.748,11.328 L370.388,11.328 L370.388,24 L373.748,24 Z M379.796,24 L379.796,16.728 C379.796,16.2 379.908,15.728 380.132,15.312 C380.356,14.896 380.66,14.572 381.044,14.34 C381.428,14.108 381.876,13.992 382.388,13.992 C383.092,13.992 383.644,14.244 384.044,14.748 C384.444,15.252 384.644,15.944 384.644,16.824 L384.644,16.824 L384.644,24 L388.004,24 L388.004,16.392 C388.004,15.288 387.812,14.328 387.428,13.512 C387.044,12.696 386.504,12.068 385.808,11.628 C385.112,11.188 384.3,10.968 383.372,10.968 C382.54,10.968 381.8,11.148 381.152,11.508 C380.504,11.868 379.996,12.352 379.628,12.96 L379.628,12.96 L379.532,11.328 L376.436,11.328 L376.436,24 L379.796,24 Z M401.804,24.36 C402.764,24.36 403.648,24.192 404.456,23.856 C405.264,23.52 405.968,23.048 406.568,22.44 C407.168,21.832 407.636,21.12 407.972,20.304 C408.308,19.488 408.476,18.6 408.476,17.64 C408.476,16.68 408.312,15.796 407.984,14.988 C407.656,14.18 407.196,13.476 406.604,12.876 C406.012,12.276 405.316,11.808 404.516,11.472 C403.716,11.136 402.844,10.968 401.9,10.968 C400.94,10.968 400.056,11.136 399.248,11.472 C398.44,11.808 397.736,12.28 397.136,12.888 C396.536,13.496 396.068,14.204 395.732,15.012 C395.396,15.82 395.228,16.704 395.228,17.664 C395.228,18.624 395.392,19.512 395.72,20.328 C396.048,21.144 396.508,21.852 397.1,22.452 C397.692,23.052 398.388,23.52 399.188,23.856 C399.988,24.192 400.86,24.36 401.804,24.36 Z M401.852,21.336 C401.244,21.336 400.7,21.176 400.22,20.856 C399.74,20.536 399.36,20.1 399.08,19.548 C398.8,18.996 398.66,18.368 398.66,17.664 C398.66,16.96 398.8,16.332 399.08,15.78 C399.36,15.228 399.74,14.792 400.22,14.472 C400.7,14.152 401.244,13.992 401.852,13.992 C402.46,13.992 403.004,14.152 403.484,14.472 C403.964,14.792 404.344,15.228 404.624,15.78 C404.904,16.332 405.044,16.96 405.044,17.664 C405.044,18.368 404.904,18.996 404.624,19.548 C404.344,20.1 403.964,20.536 403.484,20.856 C403.004,21.176 402.46,21.336 401.852,21.336 Z M416.396,24.36 C417.276,24.36 418.072,24.216 418.784,23.928 C419.496,23.64 420.108,23.232 420.62,22.704 C421.132,22.176 421.524,21.544 421.796,20.808 C422.068,20.072 422.204,19.248 422.204,18.336 L422.204,18.336 L422.204,11.328 L418.844,11.328 L418.844,18.408 C418.844,19.32 418.628,20.036 418.196,20.556 C417.764,21.076 417.18,21.336 416.444,21.336 C415.708,21.336 415.124,21.076 414.692,20.556 C414.26,20.036 414.044,19.32 414.044,18.408 L414.044,18.408 L414.044,11.328 L410.684,11.328 L410.684,18.336 C410.684,19.568 410.92,20.636 411.392,21.54 C411.864,22.444 412.528,23.14 413.384,23.628 C414.24,24.116 415.244,24.36 416.396,24.36 Z M428.252,24 L428.252,17.784 C428.252,16.744 428.5,15.94 428.996,15.372 C429.492,14.804 430.204,14.52 431.132,14.52 C431.324,14.52 431.512,14.532 431.696,14.556 C431.88,14.58 432.06,14.624 432.236,14.688 L432.236,14.688 L432.596,11.376 C432.42,11.312 432.22,11.26 431.996,11.22 C431.772,11.18 431.548,11.16 431.324,11.16 C430.588,11.16 429.948,11.34 429.404,11.7 C428.86,12.06 428.428,12.576 428.108,13.248 L428.108,13.248 L427.988,11.328 L424.892,11.328 L424.892,24 L428.252,24 Z M207.86,55.48 C209.076,55.48 210.196,55.284 211.22,54.892 C212.244,54.5 213.124,53.944 213.86,53.224 C214.596,52.504 215.168,51.648 215.576,50.656 C215.984,49.664 216.188,48.576 216.188,47.392 L216.188,47.392 L216.188,45.592 L208.268,45.592 L208.268,48.544 L212.516,48.544 C212.42,49.28 212.172,49.92 211.772,50.464 C211.372,51.008 210.852,51.432 210.212,51.736 C209.572,52.04 208.844,52.192 208.028,52.192 C207.26,52.192 206.556,52.052 205.916,51.772 C205.276,51.492 204.72,51.096 204.248,50.584 C203.776,50.072 203.412,49.464 203.156,48.76 C202.9,48.056 202.772,47.288 202.772,46.456 C202.772,45.64 202.9,44.888 203.156,44.2 C203.412,43.512 203.772,42.908 204.236,42.388 C204.7,41.868 205.244,41.468 205.868,41.188 C206.492,40.908 207.172,40.768 207.908,40.768 C208.804,40.768 209.592,40.976 210.272,41.392 C210.952,41.808 211.508,42.4 211.94,43.168 L211.94,43.168 L215.396,42.112 C214.98,41.136 214.4,40.304 213.656,39.616 C212.912,38.928 212.052,38.4 211.076,38.032 C210.1,37.664 209.044,37.48 207.908,37.48 C206.9,37.48 205.952,37.628 205.064,37.924 C204.176,38.22 203.364,38.636 202.628,39.172 C201.892,39.708 201.26,40.352 200.732,41.104 C200.204,41.856 199.796,42.688 199.508,43.6 C199.22,44.512 199.076,45.488 199.076,46.528 C199.076,47.568 199.22,48.54 199.508,49.444 C199.796,50.348 200.2,51.168 200.72,51.904 C201.24,52.64 201.864,53.276 202.592,53.812 C203.32,54.348 204.128,54.76 205.016,55.048 C205.904,55.336 206.852,55.48 207.86,55.48 Z M220.148,40.816 C220.5,40.816 220.824,40.732 221.12,40.564 C221.416,40.396 221.648,40.168 221.816,39.88 C221.984,39.592 222.068,39.264 222.068,38.896 C222.068,38.528 221.984,38.2 221.816,37.912 C221.648,37.624 221.416,37.396 221.12,37.228 C220.824,37.06 220.5,36.976 220.148,36.976 C219.796,36.976 219.472,37.06 219.176,37.228 C218.88,37.396 218.648,37.624 218.48,37.912 C218.312,38.2 218.228,38.528 218.228,38.896 C218.228,39.264 218.312,39.592 218.48,39.88 C218.648,40.168 218.88,40.396 219.176,40.564 C219.472,40.732 219.796,40.816 220.148,40.816 Z M221.828,55 L221.828,42.328 L218.468,42.328 L218.468,55 L221.828,55 Z M230.012,55.36 C230.604,55.36 231.156,55.284 231.668,55.132 C232.18,54.98 232.644,54.776 233.06,54.52 L233.06,54.52 L232.46,52 C232.172,52.128 231.872,52.232 231.56,52.312 C231.248,52.392 230.956,52.432 230.684,52.432 C230.156,52.432 229.764,52.268 229.508,51.94 C229.252,51.612 229.124,51.144 229.124,50.536 L229.124,50.536 L229.124,45.04 L232.58,45.04 L232.58,42.328 L229.124,42.328 L229.124,38.008 L225.764,38.008 L225.764,42.328 L223.604,42.328 L223.604,45.04 L225.764,45.04 L225.764,50.944 C225.764,51.888 225.936,52.688 226.28,53.344 C226.624,54 227.112,54.5 227.744,54.844 C228.376,55.188 229.132,55.36 230.012,55.36 Z M238.82,55 L238.82,47.776 L246.356,47.776 L246.356,55 L249.932,55 L249.932,37.96 L246.356,37.96 L246.356,44.608 L238.82,44.608 L238.82,37.96 L235.244,37.96 L235.244,55 L238.82,55 Z M258.548,55.36 C259.428,55.36 260.224,55.216 260.936,54.928 C261.648,54.64 262.26,54.232 262.772,53.704 C263.284,53.176 263.676,52.544 263.948,51.808 C264.22,51.072 264.356,50.248 264.356,49.336 L264.356,49.336 L264.356,42.328 L260.996,42.328 L260.996,49.408 C260.996,50.32 260.78,51.036 260.348,51.556 C259.916,52.076 259.332,52.336 258.596,52.336 C257.86,52.336 257.276,52.076 256.844,51.556 C256.412,51.036 256.196,50.32 256.196,49.408 L256.196,49.408 L256.196,42.328 L252.836,42.328 L252.836,49.336 C252.836,50.568 253.072,51.636 253.544,52.54 C254.016,53.444 254.68,54.14 255.536,54.628 C256.392,55.116 257.396,55.36 258.548,55.36 Z M274.148,55.36 C274.996,55.36 275.788,55.188 276.524,54.844 C277.26,54.5 277.9,54.02 278.444,53.404 C278.988,52.788 279.412,52.072 279.716,51.256 C280.02,50.44 280.172,49.552 280.172,48.592 C280.172,47.648 280.024,46.776 279.728,45.976 C279.432,45.176 279.02,44.476 278.492,43.876 C277.964,43.276 277.348,42.808 276.644,42.472 C275.94,42.136 275.172,41.968 274.34,41.968 C273.524,41.968 272.776,42.144 272.096,42.496 C271.416,42.848 270.852,43.328 270.404,43.936 L270.404,43.936 L270.404,37.096 L267.044,37.096 L267.044,55 L270.14,55 L270.236,53.344 C270.668,53.984 271.22,54.48 271.892,54.832 C272.564,55.184 273.316,55.36 274.148,55.36 Z M273.548,52.336 C272.94,52.336 272.396,52.176 271.916,51.856 C271.436,51.536 271.056,51.1 270.776,50.548 C270.496,49.996 270.356,49.368 270.356,48.664 C270.356,47.96 270.496,47.332 270.776,46.78 C271.056,46.228 271.436,45.792 271.916,45.472 C272.396,45.152 272.94,44.992 273.548,44.992 C274.156,44.992 274.7,45.152 275.18,45.472 C275.66,45.792 276.04,46.228 276.32,46.78 C276.6,47.332 276.74,47.96 276.74,48.664 C276.74,49.368 276.6,49.996 276.32,50.548 C276.04,51.1 275.66,51.536 275.18,51.856 C274.7,52.176 274.156,52.336 273.548,52.336 Z M291.14,55 L291.14,48.976 C291.748,49.072 292.308,49.12 292.82,49.12 C293.172,49.12 293.5,49.112 293.804,49.096 L293.804,49.096 L296.852,55 L300.788,55 L296.924,48.16 C297.532,47.84 298.052,47.436 298.484,46.948 C298.916,46.46 299.252,45.916 299.492,45.316 C299.732,44.716 299.852,44.088 299.852,43.432 C299.852,42.312 299.58,41.34 299.036,40.516 C298.492,39.692 297.712,39.06 296.696,38.62 C295.68,38.18 294.476,37.96 293.084,37.96 L293.084,37.96 L287.612,37.96 L287.612,55 L291.14,55 Z M293.012,46.144 C292.676,46.144 292.356,46.132 292.052,46.108 C291.748,46.084 291.444,46.048 291.14,46 L291.14,46 L291.14,40.984 L293.012,40.984 C294.036,40.984 294.828,41.208 295.388,41.656 C295.948,42.104 296.228,42.736 296.228,43.552 C296.228,44.368 295.948,45.004 295.388,45.46 C294.828,45.916 294.036,46.144 293.012,46.144 Z M308.54,55.36 C309.404,55.36 310.22,55.22 310.988,54.94 C311.756,54.66 312.428,54.264 313.004,53.752 C313.58,53.24 314.012,52.624 314.3,51.904 L314.3,51.904 L311.3,50.944 C310.996,51.456 310.608,51.848 310.136,52.12 C309.664,52.392 309.14,52.528 308.564,52.528 C307.732,52.528 307.044,52.26 306.5,51.724 C305.956,51.188 305.612,50.448 305.468,49.504 L305.468,49.504 L314.564,49.504 L314.564,48.664 C314.564,47.656 314.416,46.744 314.12,45.928 C313.824,45.112 313.404,44.408 312.86,43.816 C312.316,43.224 311.664,42.768 310.904,42.448 C310.144,42.128 309.3,41.968 308.372,41.968 C307.476,41.968 306.644,42.136 305.876,42.472 C305.108,42.808 304.44,43.276 303.872,43.876 C303.304,44.476 302.86,45.184 302.54,46 C302.22,46.816 302.06,47.696 302.06,48.64 C302.06,49.616 302.22,50.516 302.54,51.34 C302.86,52.164 303.308,52.876 303.884,53.476 C304.46,54.076 305.144,54.54 305.936,54.868 C306.728,55.196 307.596,55.36 308.54,55.36 Z M311.108,47.248 L305.516,47.248 C305.676,46.416 306.008,45.76 306.512,45.28 C307.016,44.8 307.636,44.56 308.372,44.56 C309.092,44.56 309.696,44.8 310.184,45.28 C310.672,45.76 310.98,46.416 311.108,47.248 L311.108,47.248 Z M320.012,59.656 L320.012,53.584 C320.444,54.144 320.98,54.58 321.62,54.892 C322.26,55.204 322.972,55.36 323.756,55.36 C324.604,55.36 325.396,55.188 326.132,54.844 C326.868,54.5 327.508,54.02 328.052,53.404 C328.596,52.788 329.02,52.072 329.324,51.256 C329.628,50.44 329.78,49.552 329.78,48.592 C329.78,47.648 329.632,46.776 329.336,45.976 C329.04,45.176 328.628,44.476 328.1,43.876 C327.572,43.276 326.956,42.808 326.252,42.472 C325.548,42.136 324.78,41.968 323.948,41.968 C323.084,41.968 322.292,42.164 321.572,42.556 C320.852,42.948 320.276,43.488 319.844,44.176 L319.844,44.176 L319.748,42.328 L316.652,42.328 L316.652,59.656 L320.012,59.656 Z M323.156,52.336 C322.548,52.336 322.004,52.176 321.524,51.856 C321.044,51.536 320.664,51.1 320.384,50.548 C320.104,49.996 319.964,49.368 319.964,48.664 C319.964,47.96 320.104,47.332 320.384,46.78 C320.664,46.228 321.044,45.792 321.524,45.472 C322.004,45.152 322.548,44.992 323.156,44.992 C323.764,44.992 324.308,45.152 324.788,45.472 C325.268,45.792 325.648,46.228 325.928,46.78 C326.208,47.332 326.348,47.96 326.348,48.664 C326.348,49.368 326.208,49.996 325.928,50.548 C325.648,51.1 325.268,51.536 324.788,51.856 C324.308,52.176 323.764,52.336 323.156,52.336 Z M338.084,55.36 C339.044,55.36 339.928,55.192 340.736,54.856 C341.544,54.52 342.248,54.048 342.848,53.44 C343.448,52.832 343.916,52.12 344.252,51.304 C344.588,50.488 344.756,49.6 344.756,48.64 C344.756,47.68 344.592,46.796 344.264,45.988 C343.936,45.18 343.476,44.476 342.884,43.876 C342.292,43.276 341.596,42.808 340.796,42.472 C339.996,42.136 339.124,41.968 338.18,41.968 C337.22,41.968 336.336,42.136 335.528,42.472 C334.72,42.808 334.016,43.28 333.416,43.888 C332.816,44.496 332.348,45.204 332.012,46.012 C331.676,46.82 331.508,47.704 331.508,48.664 C331.508,49.624 331.672,50.512 332,51.328 C332.328,52.144 332.788,52.852 333.38,53.452 C333.972,54.052 334.668,54.52 335.468,54.856 C336.268,55.192 337.14,55.36 338.084,55.36 Z M338.132,52.336 C337.524,52.336 336.98,52.176 336.5,51.856 C336.02,51.536 335.64,51.1 335.36,50.548 C335.08,49.996 334.94,49.368 334.94,48.664 C334.94,47.96 335.08,47.332 335.36,46.78 C335.64,46.228 336.02,45.792 336.5,45.472 C336.98,45.152 337.524,44.992 338.132,44.992 C338.74,44.992 339.284,45.152 339.764,45.472 C340.244,45.792 340.624,46.228 340.904,46.78 C341.184,47.332 341.324,47.96 341.324,48.664 C341.324,49.368 341.184,49.996 340.904,50.548 C340.624,51.1 340.244,51.536 339.764,51.856 C339.284,52.176 338.74,52.336 338.132,52.336 Z M351.524,55.36 C352.276,55.36 352.964,55.256 353.588,55.048 C354.212,54.84 354.756,54.544 355.22,54.16 C355.684,53.776 356.04,53.328 356.288,52.816 C356.536,52.304 356.66,51.736 356.66,51.112 C356.66,50.088 356.3,49.244 355.58,48.58 C354.86,47.916 353.82,47.464 352.46,47.224 L352.46,47.224 L351.788,47.104 C351.036,46.976 350.504,46.804 350.192,46.588 C349.88,46.372 349.724,46.104 349.724,45.784 C349.724,45.416 349.884,45.112 350.204,44.872 C350.524,44.632 350.932,44.512 351.428,44.512 C351.908,44.512 352.328,44.648 352.688,44.92 C353.048,45.192 353.308,45.568 353.468,46.048 L353.468,46.048 L356.468,45.424 C356.292,44.704 355.972,44.088 355.508,43.576 C355.044,43.064 354.464,42.668 353.768,42.388 C353.072,42.108 352.3,41.968 351.452,41.968 C350.492,41.968 349.644,42.144 348.908,42.496 C348.172,42.848 347.596,43.332 347.18,43.948 C346.764,44.564 346.556,45.272 346.556,46.072 C346.556,47.08 346.912,47.912 347.624,48.568 C348.336,49.224 349.38,49.672 350.756,49.912 L350.756,49.912 L351.428,50.032 C352.148,50.16 352.664,50.34 352.976,50.572 C353.288,50.804 353.444,51.096 353.444,51.448 C353.444,51.864 353.268,52.192 352.916,52.432 C352.564,52.672 352.116,52.792 351.572,52.792 C350.996,52.792 350.5,52.648 350.084,52.36 C349.668,52.072 349.38,51.68 349.22,51.184 L349.22,51.184 L346.196,51.832 C346.388,52.552 346.736,53.176 347.24,53.704 C347.744,54.232 348.36,54.64 349.088,54.928 C349.816,55.216 350.628,55.36 351.524,55.36 Z M360.428,40.816 C360.78,40.816 361.104,40.732 361.4,40.564 C361.696,40.396 361.928,40.168 362.096,39.88 C362.264,39.592 362.348,39.264 362.348,38.896 C362.348,38.528 362.264,38.2 362.096,37.912 C361.928,37.624 361.696,37.396 361.4,37.228 C361.104,37.06 360.78,36.976 360.428,36.976 C360.076,36.976 359.752,37.06 359.456,37.228 C359.16,37.396 358.928,37.624 358.76,37.912 C358.592,38.2 358.508,38.528 358.508,38.896 C358.508,39.264 358.592,39.592 358.76,39.88 C358.928,40.168 359.16,40.396 359.456,40.564 C359.752,40.732 360.076,40.816 360.428,40.816 Z M362.108,55 L362.108,42.328 L358.748,42.328 L358.748,55 L362.108,55 Z M370.292,55.36 C370.884,55.36 371.436,55.284 371.948,55.132 C372.46,54.98 372.924,54.776 373.34,54.52 L373.34,54.52 L372.74,52 C372.452,52.128 372.152,52.232 371.84,52.312 C371.528,52.392 371.236,52.432 370.964,52.432 C370.436,52.432 370.044,52.268 369.788,51.94 C369.532,51.612 369.404,51.144 369.404,50.536 L369.404,50.536 L369.404,45.04 L372.86,45.04 L372.86,42.328 L369.404,42.328 L369.404,38.008 L366.044,38.008 L366.044,42.328 L363.884,42.328 L363.884,45.04 L366.044,45.04 L366.044,50.944 C366.044,51.888 366.216,52.688 366.56,53.344 C366.904,54 367.392,54.5 368.024,54.844 C368.656,55.188 369.412,55.36 370.292,55.36 Z M381.404,55.36 C382.364,55.36 383.248,55.192 384.056,54.856 C384.864,54.52 385.568,54.048 386.168,53.44 C386.768,52.832 387.236,52.12 387.572,51.304 C387.908,50.488 388.076,49.6 388.076,48.64 C388.076,47.68 387.912,46.796 387.584,45.988 C387.256,45.18 386.796,44.476 386.204,43.876 C385.612,43.276 384.916,42.808 384.116,42.472 C383.316,42.136 382.444,41.968 381.5,41.968 C380.54,41.968 379.656,42.136 378.848,42.472 C378.04,42.808 377.336,43.28 376.736,43.888 C376.136,44.496 375.668,45.204 375.332,46.012 C374.996,46.82 374.828,47.704 374.828,48.664 C374.828,49.624 374.992,50.512 375.32,51.328 C375.648,52.144 376.108,52.852 376.7,53.452 C377.292,54.052 377.988,54.52 378.788,54.856 C379.588,55.192 380.46,55.36 381.404,55.36 Z M381.452,52.336 C380.844,52.336 380.3,52.176 379.82,51.856 C379.34,51.536 378.96,51.1 378.68,50.548 C378.4,49.996 378.26,49.368 378.26,48.664 C378.26,47.96 378.4,47.332 378.68,46.78 C378.96,46.228 379.34,45.792 379.82,45.472 C380.3,45.152 380.844,44.992 381.452,44.992 C382.06,44.992 382.604,45.152 383.084,45.472 C383.564,45.792 383.944,46.228 384.224,46.78 C384.504,47.332 384.644,47.96 384.644,48.664 C384.644,49.368 384.504,49.996 384.224,50.548 C383.944,51.1 383.564,51.536 383.084,51.856 C382.604,52.176 382.06,52.336 381.452,52.336 Z M393.644,55 L393.644,48.784 C393.644,47.744 393.892,46.94 394.388,46.372 C394.884,45.804 395.596,45.52 396.524,45.52 C396.716,45.52 396.904,45.532 397.088,45.556 C397.272,45.58 397.452,45.624 397.628,45.688 L397.628,45.688 L397.988,42.376 C397.812,42.312 397.612,42.26 397.388,42.22 C397.164,42.18 396.94,42.16 396.716,42.16 C395.98,42.16 395.34,42.34 394.796,42.7 C394.252,43.06 393.82,43.576 393.5,44.248 L393.5,44.248 L393.38,42.328 L390.284,42.328 L390.284,55 L393.644,55 Z M401.924,59.896 C402.98,59.896 403.88,59.6 404.624,59.008 C405.368,58.416 405.98,57.48 406.46,56.2 L406.46,56.2 L411.668,42.328 L408.116,42.328 L405.404,51.304 L402.404,42.328 L398.732,42.328 L403.844,54.88 L403.628,55.432 C403.404,55.976 403.12,56.372 402.776,56.62 C402.432,56.868 402.028,56.992 401.564,56.992 C401.356,56.992 401.132,56.964 400.892,56.908 C400.652,56.852 400.444,56.784 400.268,56.704 L400.268,56.704 L399.62,59.344 C399.956,59.536 400.316,59.676 400.7,59.764 C401.084,59.852 401.492,59.896 401.924,59.896 Z" id="ReporttheIssueinourGitHubRepository" fill="#4051B5"></path>
                </g>
            </g>
        </g>
    </g>
</svg>